<mxfile host="app.diagrams.net" modified="2024-03-07T04:00:02.303Z" agent="Mozilla/5.0 (Windows NT 10.0; Win64; x64) AppleWebKit/537.36 (KHTML, like Gecko) Chrome/122.0.0.0 Safari/537.36" etag="FaiwpeAw6r-WAsWqW_Bl" version="24.0.0" type="github">
  <diagram name="Página-1" id="rTX0b2WtM6PaIv0UiQfQ">
    <mxGraphModel dx="1666" dy="531" grid="1" gridSize="10" guides="1" tooltips="1" connect="1" arrows="1" fold="1" page="1" pageScale="1" pageWidth="827" pageHeight="1169" math="0" shadow="0">
      <root>
        <mxCell id="0" />
        <mxCell id="1" parent="0" />
        <mxCell id="cUlaZXMMiPLjSlLGmPAp-3" value="" style="edgeStyle=orthogonalEdgeStyle;orthogonalLoop=1;jettySize=auto;html=1;fontColor=default;labelBackgroundColor=none;" edge="1" parent="1" source="cUlaZXMMiPLjSlLGmPAp-1" target="cUlaZXMMiPLjSlLGmPAp-2">
          <mxGeometry relative="1" as="geometry" />
        </mxCell>
        <mxCell id="cUlaZXMMiPLjSlLGmPAp-1" value="LAS METODOLOGIAS&amp;nbsp; DE SOFTWARE" style="rounded=1;whiteSpace=wrap;html=1;labelBackgroundColor=none;fontSize=14;fontStyle=1;fillColor=#e1d5e7;strokeColor=#9673a6;" vertex="1" parent="1">
          <mxGeometry x="270" y="220" width="340" height="40" as="geometry" />
        </mxCell>
        <mxCell id="cUlaZXMMiPLjSlLGmPAp-5" value="" style="edgeStyle=orthogonalEdgeStyle;orthogonalLoop=1;jettySize=auto;html=1;fontColor=default;labelBackgroundColor=none;" edge="1" parent="1" source="cUlaZXMMiPLjSlLGmPAp-2" target="cUlaZXMMiPLjSlLGmPAp-4">
          <mxGeometry relative="1" as="geometry" />
        </mxCell>
        <mxCell id="cUlaZXMMiPLjSlLGmPAp-6" value="" style="edgeStyle=orthogonalEdgeStyle;orthogonalLoop=1;jettySize=auto;html=1;fontColor=default;labelBackgroundColor=none;" edge="1" parent="1" source="cUlaZXMMiPLjSlLGmPAp-2" target="cUlaZXMMiPLjSlLGmPAp-4">
          <mxGeometry relative="1" as="geometry" />
        </mxCell>
        <mxCell id="cUlaZXMMiPLjSlLGmPAp-8" value="" style="edgeStyle=orthogonalEdgeStyle;orthogonalLoop=1;jettySize=auto;html=1;fontColor=default;labelBackgroundColor=none;" edge="1" parent="1" source="cUlaZXMMiPLjSlLGmPAp-2" target="cUlaZXMMiPLjSlLGmPAp-7">
          <mxGeometry relative="1" as="geometry" />
        </mxCell>
        <mxCell id="cUlaZXMMiPLjSlLGmPAp-2" value="SE DIVIDEN EN:" style="whiteSpace=wrap;html=1;rounded=1;labelBackgroundColor=none;fontSize=14;fontStyle=1;fillColor=#f5f5f5;fontColor=#333333;strokeColor=#666666;" vertex="1" parent="1">
          <mxGeometry x="380" y="300" width="120" height="40" as="geometry" />
        </mxCell>
        <mxCell id="cUlaZXMMiPLjSlLGmPAp-10" value="" style="edgeStyle=orthogonalEdgeStyle;orthogonalLoop=1;jettySize=auto;html=1;fontColor=default;labelBackgroundColor=none;" edge="1" parent="1" source="cUlaZXMMiPLjSlLGmPAp-4" target="cUlaZXMMiPLjSlLGmPAp-9">
          <mxGeometry relative="1" as="geometry" />
        </mxCell>
        <mxCell id="cUlaZXMMiPLjSlLGmPAp-11" value="" style="edgeStyle=orthogonalEdgeStyle;orthogonalLoop=1;jettySize=auto;html=1;fontColor=default;labelBackgroundColor=none;" edge="1" parent="1" source="cUlaZXMMiPLjSlLGmPAp-4" target="cUlaZXMMiPLjSlLGmPAp-9">
          <mxGeometry relative="1" as="geometry" />
        </mxCell>
        <mxCell id="cUlaZXMMiPLjSlLGmPAp-12" value="" style="edgeStyle=orthogonalEdgeStyle;orthogonalLoop=1;jettySize=auto;html=1;fontColor=default;labelBackgroundColor=none;" edge="1" parent="1" source="cUlaZXMMiPLjSlLGmPAp-4" target="cUlaZXMMiPLjSlLGmPAp-9">
          <mxGeometry relative="1" as="geometry" />
        </mxCell>
        <mxCell id="cUlaZXMMiPLjSlLGmPAp-14" value="" style="edgeStyle=orthogonalEdgeStyle;orthogonalLoop=1;jettySize=auto;html=1;fontColor=default;labelBackgroundColor=none;" edge="1" parent="1" source="cUlaZXMMiPLjSlLGmPAp-4" target="cUlaZXMMiPLjSlLGmPAp-13">
          <mxGeometry relative="1" as="geometry" />
        </mxCell>
        <mxCell id="cUlaZXMMiPLjSlLGmPAp-15" value="" style="edgeStyle=orthogonalEdgeStyle;orthogonalLoop=1;jettySize=auto;html=1;fontColor=default;labelBackgroundColor=none;" edge="1" parent="1" source="cUlaZXMMiPLjSlLGmPAp-4" target="cUlaZXMMiPLjSlLGmPAp-13">
          <mxGeometry relative="1" as="geometry" />
        </mxCell>
        <mxCell id="cUlaZXMMiPLjSlLGmPAp-18" style="edgeStyle=orthogonalEdgeStyle;orthogonalLoop=1;jettySize=auto;html=1;entryX=0.5;entryY=0;entryDx=0;entryDy=0;fontColor=default;labelBackgroundColor=none;" edge="1" parent="1" source="cUlaZXMMiPLjSlLGmPAp-4" target="cUlaZXMMiPLjSlLGmPAp-16">
          <mxGeometry relative="1" as="geometry" />
        </mxCell>
        <mxCell id="cUlaZXMMiPLjSlLGmPAp-19" style="edgeStyle=orthogonalEdgeStyle;orthogonalLoop=1;jettySize=auto;html=1;fontColor=default;labelBackgroundColor=none;" edge="1" parent="1" source="cUlaZXMMiPLjSlLGmPAp-4" target="cUlaZXMMiPLjSlLGmPAp-17">
          <mxGeometry relative="1" as="geometry" />
        </mxCell>
        <mxCell id="cUlaZXMMiPLjSlLGmPAp-4" value="&lt;b&gt;&lt;font style=&quot;font-size: 14px;&quot;&gt;Metodologías Tradicionales&lt;/font&gt;&lt;/b&gt;" style="whiteSpace=wrap;html=1;rounded=1;labelBackgroundColor=none;fillColor=#e1d5e7;strokeColor=#9673a6;" vertex="1" parent="1">
          <mxGeometry x="20" y="360" width="190" height="40" as="geometry" />
        </mxCell>
        <mxCell id="cUlaZXMMiPLjSlLGmPAp-21" value="" style="edgeStyle=orthogonalEdgeStyle;rounded=0;orthogonalLoop=1;jettySize=auto;html=1;labelBackgroundColor=none;fontColor=default;" edge="1" parent="1" source="cUlaZXMMiPLjSlLGmPAp-7" target="cUlaZXMMiPLjSlLGmPAp-20">
          <mxGeometry relative="1" as="geometry" />
        </mxCell>
        <mxCell id="cUlaZXMMiPLjSlLGmPAp-23" value="" style="edgeStyle=orthogonalEdgeStyle;rounded=0;orthogonalLoop=1;jettySize=auto;html=1;labelBackgroundColor=none;fontColor=default;" edge="1" parent="1" source="cUlaZXMMiPLjSlLGmPAp-7" target="cUlaZXMMiPLjSlLGmPAp-22">
          <mxGeometry relative="1" as="geometry" />
        </mxCell>
        <mxCell id="cUlaZXMMiPLjSlLGmPAp-25" style="edgeStyle=orthogonalEdgeStyle;rounded=0;orthogonalLoop=1;jettySize=auto;html=1;labelBackgroundColor=none;fontColor=default;" edge="1" parent="1" source="cUlaZXMMiPLjSlLGmPAp-7" target="cUlaZXMMiPLjSlLGmPAp-24">
          <mxGeometry relative="1" as="geometry" />
        </mxCell>
        <mxCell id="cUlaZXMMiPLjSlLGmPAp-7" value="&lt;font style=&quot;font-size: 14px;&quot;&gt;&lt;b&gt;Metodologías Agiles&lt;/b&gt;&lt;/font&gt;" style="whiteSpace=wrap;html=1;rounded=1;labelBackgroundColor=none;fillColor=#e1d5e7;strokeColor=#9673a6;" vertex="1" parent="1">
          <mxGeometry x="680" y="360" width="150" height="40" as="geometry" />
        </mxCell>
        <mxCell id="cUlaZXMMiPLjSlLGmPAp-33" value="" style="edgeStyle=orthogonalEdgeStyle;rounded=0;orthogonalLoop=1;jettySize=auto;html=1;labelBackgroundColor=none;fontColor=default;" edge="1" parent="1" source="cUlaZXMMiPLjSlLGmPAp-9" target="cUlaZXMMiPLjSlLGmPAp-32">
          <mxGeometry relative="1" as="geometry" />
        </mxCell>
        <mxCell id="cUlaZXMMiPLjSlLGmPAp-9" value="Incremental" style="whiteSpace=wrap;html=1;rounded=1;labelBackgroundColor=none;fillColor=#f5f5f5;fontColor=#333333;strokeColor=#666666;fontSize=14;" vertex="1" parent="1">
          <mxGeometry x="280" y="440" width="120" height="60" as="geometry" />
        </mxCell>
        <mxCell id="cUlaZXMMiPLjSlLGmPAp-27" value="" style="edgeStyle=orthogonalEdgeStyle;rounded=0;orthogonalLoop=1;jettySize=auto;html=1;labelBackgroundColor=none;fontColor=default;" edge="1" parent="1" source="cUlaZXMMiPLjSlLGmPAp-13" target="cUlaZXMMiPLjSlLGmPAp-26">
          <mxGeometry relative="1" as="geometry" />
        </mxCell>
        <mxCell id="cUlaZXMMiPLjSlLGmPAp-13" value="Cascada" style="whiteSpace=wrap;html=1;rounded=1;labelBackgroundColor=none;fillColor=#f5f5f5;fontColor=#333333;strokeColor=#666666;fontSize=14;" vertex="1" parent="1">
          <mxGeometry x="-150" y="440" width="120" height="60" as="geometry" />
        </mxCell>
        <mxCell id="cUlaZXMMiPLjSlLGmPAp-29" value="" style="edgeStyle=orthogonalEdgeStyle;rounded=0;orthogonalLoop=1;jettySize=auto;html=1;labelBackgroundColor=none;fontColor=default;" edge="1" parent="1" source="cUlaZXMMiPLjSlLGmPAp-16" target="cUlaZXMMiPLjSlLGmPAp-28">
          <mxGeometry relative="1" as="geometry" />
        </mxCell>
        <mxCell id="cUlaZXMMiPLjSlLGmPAp-16" value="Espiral" style="whiteSpace=wrap;html=1;rounded=1;labelBackgroundColor=none;fillColor=#f5f5f5;fontColor=#333333;strokeColor=#666666;fontSize=14;" vertex="1" parent="1">
          <mxGeometry y="440" width="120" height="60" as="geometry" />
        </mxCell>
        <mxCell id="cUlaZXMMiPLjSlLGmPAp-31" value="" style="edgeStyle=orthogonalEdgeStyle;rounded=0;orthogonalLoop=1;jettySize=auto;html=1;labelBackgroundColor=none;fontColor=default;" edge="1" parent="1" source="cUlaZXMMiPLjSlLGmPAp-17" target="cUlaZXMMiPLjSlLGmPAp-30">
          <mxGeometry relative="1" as="geometry" />
        </mxCell>
        <mxCell id="cUlaZXMMiPLjSlLGmPAp-17" value="Prototipado" style="whiteSpace=wrap;html=1;rounded=1;labelBackgroundColor=none;fillColor=#f5f5f5;fontColor=#333333;strokeColor=#666666;fontSize=14;" vertex="1" parent="1">
          <mxGeometry x="140" y="440" width="120" height="60" as="geometry" />
        </mxCell>
        <mxCell id="cUlaZXMMiPLjSlLGmPAp-20" value="" style="whiteSpace=wrap;html=1;rounded=1;labelBackgroundColor=none;fillColor=#f5f5f5;fontColor=#333333;strokeColor=#666666;" vertex="1" parent="1">
          <mxGeometry x="520" y="440" width="120" height="60" as="geometry" />
        </mxCell>
        <mxCell id="cUlaZXMMiPLjSlLGmPAp-22" value="" style="whiteSpace=wrap;html=1;rounded=1;labelBackgroundColor=none;fillColor=#f5f5f5;fontColor=#333333;strokeColor=#666666;" vertex="1" parent="1">
          <mxGeometry x="695" y="440" width="120" height="60" as="geometry" />
        </mxCell>
        <mxCell id="cUlaZXMMiPLjSlLGmPAp-24" value="" style="whiteSpace=wrap;html=1;rounded=1;labelBackgroundColor=none;fillColor=#f5f5f5;fontColor=#333333;strokeColor=#666666;" vertex="1" parent="1">
          <mxGeometry x="860" y="440" width="120" height="60" as="geometry" />
        </mxCell>
        <mxCell id="cUlaZXMMiPLjSlLGmPAp-26" value="&lt;div style=&quot;&quot;&gt;&lt;span style=&quot;font-size: 13px;&quot;&gt;&lt;br&gt;&lt;/span&gt;&lt;/div&gt;&lt;font style=&quot;font-size: 14px;&quot; color=&quot;#080808&quot;&gt;&lt;div style=&quot;&quot;&gt;&lt;span style=&quot;background-color: initial; font-family: &amp;quot;Google Sans&amp;quot;, &amp;quot;Helvetica Neue&amp;quot;, sans-serif;&quot;&gt;&amp;nbsp;Es un modelo secuencial donde cada fase del proyecto se completa antes de pasar a la siguiente&lt;/span&gt;&lt;span style=&quot;font-family: &amp;quot;Google Sans&amp;quot;, &amp;quot;Helvetica Neue&amp;quot;, sans-serif; background-color: rgb(19, 19, 20);&quot;&gt;.&lt;/span&gt;&lt;/div&gt;&lt;/font&gt;" style="whiteSpace=wrap;html=1;rounded=1;labelBackgroundColor=none;align=center;" vertex="1" parent="1">
          <mxGeometry x="-260" y="540" width="180" height="140" as="geometry" />
        </mxCell>
        <mxCell id="cUlaZXMMiPLjSlLGmPAp-28" value="&lt;span style=&quot;font-family: &amp;quot;Google Sans&amp;quot;, &amp;quot;Helvetica Neue&amp;quot;, sans-serif; text-align: left;&quot;&gt;&lt;font style=&quot;font-size: 14px;&quot; color=&quot;#080808&quot;&gt;Es un modelo iterativo que combina el enfoque secuencial del modelo en cascada con la flexibilidad para manejar riesgos.&lt;/font&gt;&lt;/span&gt;" style="whiteSpace=wrap;html=1;rounded=1;labelBackgroundColor=none;" vertex="1" parent="1">
          <mxGeometry x="-60" y="540" width="170" height="140" as="geometry" />
        </mxCell>
        <mxCell id="cUlaZXMMiPLjSlLGmPAp-30" value="" style="whiteSpace=wrap;html=1;rounded=1;labelBackgroundColor=none;" vertex="1" parent="1">
          <mxGeometry x="120" y="550" width="120" height="60" as="geometry" />
        </mxCell>
        <mxCell id="cUlaZXMMiPLjSlLGmPAp-32" value="" style="whiteSpace=wrap;html=1;rounded=1;labelBackgroundColor=none;" vertex="1" parent="1">
          <mxGeometry x="260" y="550" width="120" height="60" as="geometry" />
        </mxCell>
        <mxCell id="cUlaZXMMiPLjSlLGmPAp-40" value="" style="image;points=[];aspect=fixed;html=1;align=center;shadow=0;dashed=0;image=img/lib/allied_telesis/computer_and_terminals/Personal_Computer_with_Server.svg;" vertex="1" parent="1">
          <mxGeometry x="140" y="180" width="120" height="120" as="geometry" />
        </mxCell>
        <mxCell id="cUlaZXMMiPLjSlLGmPAp-41" value="" style="image;aspect=fixed;html=1;points=[];align=center;fontSize=12;image=img/lib/azure2/other/Aquila.svg;" vertex="1" parent="1">
          <mxGeometry x="840" y="320" width="60" height="58.94" as="geometry" />
        </mxCell>
      </root>
    </mxGraphModel>
  </diagram>
</mxfile>
